# xmcd
#
# Track frame offsets:
# 150
# 15549
# 21266
# 25905
# 30684
# 35412
# 40413
# 42446
# 44381
# 46418
# 48548
# 50627
# 52769
# 54993
# 56988
# 58850
# 61036
# 63567
# 66160
# 68473
# 70998
# 73501
# 75551
# 77440
# 79580
# 82316
# 90888
# 92995
# 94936
# 97030
# 98414
# 99462
# 100472
# 101468
# 103350
# 107539
# 111256
# 114359
# 118798
# 123189
# 127464
# 132126
# 135471
# 137216
# 139090
# 141048
# 142894
# 144561
# 146943
# 149026
# 151326
# 163452
# 165937
# 167691
# 172247
# 175144
# 177654
# 182728
# 187250
# 191451
# 196960
# 201802
# 211748
# 213576
# 215447
# 217516
# 219450
# 221287
# 223317
# 224965
# 227898
# 229914
# 231854
# 243111
# 245109
# 247245
# 248560
# 250572
# 252630
# 264991
# 277127
# 289183
# 302739
# 316213
#
# Disc length: 4349 seconds
#
#
# Revision: 2
# Processed by: cddbd v1.5.1PL2 Copyright (c) Steve Scherf et al.
# Submitted via: FreeRIP 2.944 
#
DISCID=0b10fb54
DTITLE=Jürgen Kumlehn - Play Blues Guitar
DYEAR=1900
DGENRE=Blues
TTITLE0=Walking The Half Time
TTITLE1=Standard 12 Bar Blues
TTITLE2=Standard 12 Bar Blues Quick Change
TTITLE3=12 Bar King Bee Blues
TTITLE4=Jazz Blues
TTITLE5=Moll Blues
TTITLE6=Single Notes - Lick 1
TTITLE7=Single Notes - Lick 2
TTITLE8=Single Notes - Lick 3
TTITLE9=Single Notes - Lick 4
TTITLE10=Single Notes - Lick 5
TTITLE11=Single Notes - Lick 6
TTITLE12=Single Notes - Lick 7
TTITLE13=Single Notes - Lick 8
TTITLE14=Single Notes - Lick 9
TTITLE15=Single Notes - Lick 10
TTITLE16=Single Notes - Lick 11
TTITLE17=Single Notes - Lick 12
TTITLE18=Single Notes - Lick 13
TTITLE19=Single Notes - Lick 14
TTITLE20=Single Notes - Lick 15
TTITLE21=Single Notes - Lick 16
TTITLE22=Single Notes - Lick 17
TTITLE23=Single Notes - Lick 18
TTITLE24=Single Notes - Lick 19
TTITLE25=Single Notes - Song 1 - By Yourself
TTITLE26=Single Notes - Lick 20
TTITLE27=Single Notes - Lick 21
TTITLE28=Single Notes - Lick 22
TTITLE29=Single Notes - Lick 23
TTITLE30=Single Notes - Lick 24
TTITLE31=Single Notes - Lick 25
TTITLE32=Single Notes - Lick 26
TTITLE33=Single Notes - Lick 27
TTITLE34=Single Notes - Lick 28
TTITLE35=Single Notes - Lick 29
TTITLE36=Single Notes - Lick 30
TTITLE37=Single Notes - Lick 31
TTITLE38=Single Notes - Lick 32
TTITLE39=Single Notes - Lick 33
TTITLE40=Single Notes - Lick 34
TTITLE41=Single Notes - Lick 35
TTITLE42=Single Notes - Lick 36
TTITLE43=Single Notes - Lick 37
TTITLE44=Single Notes - Lick 38
TTITLE45=Single Notes - Lick 39
TTITLE46=Single Notes - Lick 40
TTITLE47=Single Notes - Lick 41
TTITLE48=Single Notes - Lick 42
TTITLE49=Single Notes - Lick 43
TTITLE50=Single Notes - Song 2 - Heavy Blue
TTITLE51=Akkordlicks - Lick 1
TTITLE52=Akkordlicks - Lick 2
TTITLE53=Akkordlicks - Lick 3
TTITLE54=Akkordlicks - Lick 4
TTITLE55=Akkordlicks - Lick 5
TTITLE56=Akkordlicks - Lick 6
TTITLE57=Akkordlicks - Lick 7
TTITLE58=Akkordlicks - Lick 8
TTITLE59=Akkordlicks - Lick 9
TTITLE60=Akkordlicks - Lick 10
TTITLE61=Akkordlicks - Song 3 - Minor Blue
TTITLE62=Spezi Licks - Lick 1
TTITLE63=Spezi Licks - Lick 2
TTITLE64=Spezi Licks - Lick 3
TTITLE65=Spezi Licks - Lick 4
TTITLE66=Spezi Licks - Lick 5
TTITLE67=Spezi Licks - Lick 6
TTITLE68=Spezi Licks - Lick 7
TTITLE69=Spezi Licks - Lick 8
TTITLE70=Spezi Licks - Lick 9
TTITLE71=Spezi Licks - Lick 10
TTITLE72=Spezi Licks - Song 4 - Half Blue
TTITLE73=Slide Licks - Lick 1
TTITLE74=Slide Licks - Lick 2
TTITLE75=Slide Licks - Lick 3
TTITLE76=Slide Licks - Lick 4
TTITLE77=Slide Licks - Lick 5
TTITLE78=Slide Licks - Song 5 - Red Blue
TTITLE79=John Lee Hooker - Boom Boom - Song
TTITLE80=John Lee Hooker - Boom Boom - Jamtrack
TTITLE81=Gary Moore - Walking By Myself - Song
TTITLE82=Gary Moore - Walking By Myself - Jamtrack
TTITLE83=Eric Clapton - Before You Accuse Me
EXTD=
EXTT0=
EXTT1=
EXTT2=
EXTT3=
EXTT4=
EXTT5=
EXTT6=
EXTT7=
EXTT8=
EXTT9=
EXTT10=
EXTT11=
EXTT12=
EXTT13=
EXTT14=
EXTT15=
EXTT16=
EXTT17=
EXTT18=
EXTT19=
EXTT20=
EXTT21=
EXTT22=
EXTT23=
EXTT24=
EXTT25=
EXTT26=
EXTT27=
EXTT28=
EXTT29=
EXTT30=
EXTT31=
EXTT32=
EXTT33=
EXTT34=
EXTT35=
EXTT36=
EXTT37=
EXTT38=
EXTT39=
EXTT40=
EXTT41=
EXTT42=
EXTT43=
EXTT44=
EXTT45=
EXTT46=
EXTT47=
EXTT48=
EXTT49=
EXTT50=
EXTT51=
EXTT52=
EXTT53=
EXTT54=
EXTT55=
EXTT56=
EXTT57=
EXTT58=
EXTT59=
EXTT60=
EXTT61=
EXTT62=
EXTT63=
EXTT64=
EXTT65=
EXTT66=
EXTT67=
EXTT68=
EXTT69=
EXTT70=
EXTT71=
EXTT72=
EXTT73=
EXTT74=
EXTT75=
EXTT76=
EXTT77=
EXTT78=
EXTT79=
EXTT80=
EXTT81=
EXTT82=
EXTT83=
PLAYORDER=
